<?xml version="1.0" encoding="UTF-8" standalone="no"?>
<!DOCTYPE svg PUBLIC "-//W3C//DTD SVG 1.1//EN" "http://www.w3.org/Graphics/SVG/1.1/DTD/svg11.dtd">
<svg version="1.1" xmlns="http://www.w3.org/2000/svg" xmlns:xlink="http://www.w3.org/1999/xlink" preserveAspectRatio="xMidYMid meet" viewBox="0 0 640 640" width="640" height="640"><defs><path d="M594.86 327.23C594.86 485.91 466.04 614.73 307.36 614.73C148.69 614.73 19.86 485.91 19.86 327.23C19.86 168.55 148.69 39.73 307.36 39.73C466.04 39.73 594.86 168.55 594.86 327.23Z" id="l3jpSkltth"></path><path d="" id="b1Ai33W6Gj"></path><path d="M428.65 117.6C439.69 117.6 448.65 126.56 448.65 137.6C448.65 217.45 448.65 437.01 448.65 516.86C448.65 527.9 439.69 536.86 428.65 536.86C375.45 536.86 235.84 536.86 182.64 536.86C171.59 536.86 162.64 527.9 162.64 516.86C162.64 437.01 162.64 217.45 162.64 137.6C162.64 126.56 171.59 117.6 182.64 117.6C235.84 117.6 375.45 117.6 428.65 117.6Z" id="c474zbBKsA"></path><path d="M182.16 141.96L426.82 141.96L426.82 334.93L182.16 334.93L182.16 141.96Z" id="ac0pYnCsA"></path><path d="M216.78 360.2C225.58 360.2 232.7 367.33 232.7 376.12C232.7 381.67 232.7 382.39 232.7 387.93C232.7 396.72 225.58 403.85 216.78 403.85C211.01 403.85 209.6 403.85 203.82 403.85C195.03 403.85 187.91 396.72 187.91 387.93C187.91 382.39 187.91 381.67 187.91 376.12C187.91 367.33 195.03 360.2 203.82 360.2C209.6 360.2 211.01 360.2 216.78 360.2Z" id="abMhSkTSs"></path><path d="M314.93 353.31C325.98 353.31 334.93 362.27 334.93 373.31C334.93 380.11 334.93 380.5 334.93 387.3C334.93 398.34 325.98 407.3 314.93 407.3C307.22 407.3 304.07 407.3 296.35 407.3C285.31 407.3 276.35 398.34 276.35 387.3C276.35 380.5 276.35 380.11 276.35 373.31C276.35 362.27 285.31 353.31 296.35 353.31C304.07 353.31 307.22 353.31 314.93 353.31Z" id="a10fZAID7"></path><path d="M408.66 360.2C416.79 360.2 423.38 366.79 423.38 374.92C423.38 380.71 423.38 383.35 423.38 389.13C423.38 397.26 416.79 403.85 408.66 403.85C402.65 403.85 399.31 403.85 393.3 403.85C385.17 403.85 378.58 397.26 378.58 389.13C378.58 383.35 378.58 380.71 378.58 374.92C378.58 366.79 385.17 360.2 393.3 360.2C399.31 360.2 402.65 360.2 408.66 360.2Z" id="e3ImdOCzfr"></path><path d="M406.82 415.34C417.87 415.34 426.82 424.29 426.82 435.34C426.82 452.24 426.82 482.96 426.82 499.86C426.82 510.91 417.87 519.86 406.82 519.86C363.04 519.86 251.69 519.86 207.91 519.86C196.86 519.86 187.91 510.91 187.91 499.86C187.91 482.96 187.91 452.24 187.91 435.34C187.91 424.29 196.86 415.34 207.91 415.34C251.69 415.34 363.04 415.34 406.82 415.34Z" id="d6GI91Tmy"></path><path d="M191.35 153.45L408.45 153.45L408.45 183.31L191.35 183.31L191.35 153.45Z" id="f298zMk7KG"></path><path d="M194.8 202.84L288.99 202.84L288.99 223.51L194.8 223.51L194.8 202.84Z" id="b1nMrxAYTn"></path><path d="M313.11 202.84L408.45 202.84L408.45 223.51L313.11 223.51L313.11 202.84Z" id="b3GFaJYqCw"></path><path d="M194.8 238.45L408.45 238.45L408.45 316.55L194.8 316.55L194.8 238.45Z" id="c7kZvL7jH"></path></defs><g><g><g><use xlink:href="#l3jpSkltth" opacity="1" fill="#fcfcfc" fill-opacity="1"></use></g><g><g><use xlink:href="#b1Ai33W6Gj" opacity="1" fill-opacity="0" stroke="#000000" stroke-width="1" stroke-opacity="1"></use></g></g><g><use xlink:href="#c474zbBKsA" opacity="1" fill="#000000" fill-opacity="1"></use></g><g><use xlink:href="#ac0pYnCsA" opacity="1" fill="#ffffff" fill-opacity="1"></use></g><g><use xlink:href="#abMhSkTSs" opacity="1" fill="#ffffff" fill-opacity="1"></use></g><g><use xlink:href="#a10fZAID7" opacity="1" fill="#ffffff" fill-opacity="1"></use></g><g><use xlink:href="#e3ImdOCzfr" opacity="1" fill="#ffffff" fill-opacity="1"></use></g><g><use xlink:href="#d6GI91Tmy" opacity="1" fill="#ffffff" fill-opacity="1"></use></g><g><use xlink:href="#f298zMk7KG" opacity="1" fill="#b1b1b1" fill-opacity="1"></use></g><g><use xlink:href="#b1nMrxAYTn" opacity="1" fill="#e0e0e0" fill-opacity="1"></use></g><g><use xlink:href="#b3GFaJYqCw" opacity="1" fill="#e3e3e3" fill-opacity="1"></use></g><g><use xlink:href="#c7kZvL7jH" opacity="1" fill="#e6e6e6" fill-opacity="1"></use></g></g></g></svg>