<?xml version="1.0" encoding="UTF-8" standalone="no"?>
<!DOCTYPE svg PUBLIC "-//W3C//DTD SVG 1.1//EN" "http://www.w3.org/Graphics/SVG/1.1/DTD/svg11.dtd">
<svg version="1.1" xmlns="http://www.w3.org/2000/svg" xmlns:xlink="http://www.w3.org/1999/xlink" preserveAspectRatio="xMidYMid meet" viewBox="0 0 640 640" width="640" height="640"><defs><path d="M602.09 320C602.09 478.68 473.27 607.5 314.59 607.5C155.92 607.5 27.09 478.68 27.09 320C27.09 161.32 155.92 32.5 314.59 32.5C473.27 32.5 602.09 161.32 602.09 320Z" id="a4CqxjrEiV"></path><path d="M424 100.61C435.58 100.61 444.97 110 444.97 121.58C444.97 201.92 444.97 422 444.97 502.34C444.97 513.92 435.58 523.31 424 523.31C376.04 523.31 253.15 523.31 205.19 523.31C193.61 523.31 184.22 513.92 184.22 502.34C184.22 422 184.22 201.92 184.22 121.58C184.22 110 193.61 100.61 205.19 100.61C253.15 100.61 376.04 100.61 424 100.61Z" id="d4EKBNjJk3"></path><path d="M408.81 130.47C417.81 130.47 425.1 137.77 425.1 146.76C425.1 205.99 425.1 367.39 425.1 426.62C425.1 435.61 417.81 442.91 408.81 442.91C367.96 442.91 261.7 442.91 220.85 442.91C211.85 442.91 204.56 435.61 204.56 426.62C204.56 367.39 204.56 205.99 204.56 146.76C204.56 137.77 211.85 130.47 220.85 130.47C261.7 130.47 367.96 130.47 408.81 130.47Z" id="c5DorZC7Ab"></path><path d="M336.08 482.53C336.08 496.16 325.27 507.23 311.96 507.23C298.65 507.23 287.84 496.16 287.84 482.53C287.84 468.9 298.65 457.84 311.96 457.84C325.27 457.84 336.08 468.9 336.08 482.53Z" id="a1rSuKQHDw"></path><path d="M274.08 117.09C274.08 119.85 271.84 122.09 269.08 122.09C266.32 122.09 264.08 119.85 264.08 117.09C264.08 114.34 266.32 112.09 269.08 112.09C271.84 112.09 274.08 114.34 274.08 117.09Z" id="b2Btsq9Gda"></path><path d="M333.69 114.09C335.77 114.09 337.44 115.77 337.44 117.84C337.44 118.59 337.44 117.09 337.44 117.84C337.44 119.92 335.77 121.59 333.69 121.59C324.67 121.59 301.36 121.59 292.34 121.59C290.27 121.59 288.59 119.92 288.59 117.84C288.59 117.09 288.59 118.59 288.59 117.84C288.59 115.77 290.27 114.09 292.34 114.09C301.36 114.09 324.67 114.09 333.69 114.09Z" id="agVNUh05f"></path><path d="M225.81 158.04L403.85 158.04L403.85 183.31L225.81 183.31L225.81 158.04Z" id="b2kPfuFcAn"></path><path d="M225.81 198.24L403.85 198.24L403.85 212.03L225.81 212.03L225.81 198.24Z" id="cAQ6M1Gnx"></path><path d="M225.81 228.11L403.85 228.11L403.85 243.04L225.81 243.04L225.81 228.11Z" id="hDNZV8zcF"></path><path d="M225.81 260.27L403.85 260.27L403.85 363.65L225.81 363.65L225.81 260.27Z" id="e1n1S9iZMf"></path><path d="M225.81 387.77L403.85 387.77L403.85 416.49L225.81 416.49L225.81 387.77Z" id="c3YdvMLa1J"></path></defs><g><g><g><use xlink:href="#a4CqxjrEiV" opacity="1" fill="#ffffff" fill-opacity="1"></use></g><g><use xlink:href="#d4EKBNjJk3" opacity="1" fill="#000000" fill-opacity="1"></use></g><g><use xlink:href="#c5DorZC7Ab" opacity="1" fill="#ffffff" fill-opacity="1"></use></g><g><use xlink:href="#a1rSuKQHDw" opacity="1" fill="#ffffff" fill-opacity="1"></use></g><g><use xlink:href="#b2Btsq9Gda" opacity="1" fill="#666666" fill-opacity="1"></use></g><g><use xlink:href="#agVNUh05f" opacity="1" fill="#4a4a4a" fill-opacity="1"></use></g><g><use xlink:href="#b2kPfuFcAn" opacity="1" fill="#b3b3b3" fill-opacity="1"></use></g><g><use xlink:href="#cAQ6M1Gnx" opacity="1" fill="#d1d1d1" fill-opacity="1"></use></g><g><use xlink:href="#hDNZV8zcF" opacity="1" fill="#d8d8d8" fill-opacity="1"></use></g><g><use xlink:href="#e1n1S9iZMf" opacity="1" fill="#d5d5d5" fill-opacity="1"></use></g><g><use xlink:href="#c3YdvMLa1J" opacity="1" fill="#dddddd" fill-opacity="1"></use></g></g></g></svg>