<?xml version="1.0" encoding="UTF-8" standalone="no"?>
<!DOCTYPE svg PUBLIC "-//W3C//DTD SVG 1.1//EN" "http://www.w3.org/Graphics/SVG/1.1/DTD/svg11.dtd">
<svg version="1.1" xmlns="http://www.w3.org/2000/svg" xmlns:xlink="http://www.w3.org/1999/xlink" preserveAspectRatio="xMidYMid meet" viewBox="0 0 640 640" width="640" height="640"><defs><path d="M587.52 328.9C587.52 480.68 464.3 603.9 312.52 603.9C160.74 603.9 37.52 480.68 37.52 328.9C37.52 177.12 160.74 53.9 312.52 53.9C464.3 53.9 587.52 177.12 587.52 328.9Z" id="bHGJBSz90"></path><path d="M513.99 184.43C525.04 184.43 533.99 193.38 533.99 204.43C533.99 249.13 533.99 363.24 533.99 407.94C533.99 418.99 525.04 427.94 513.99 427.94C429.78 427.94 197.13 427.94 112.91 427.94C101.87 427.94 92.91 418.99 92.91 407.94C92.91 363.24 92.91 249.13 92.91 204.43C92.91 193.38 101.87 184.43 112.91 184.43C197.13 184.43 429.78 184.43 513.99 184.43Z" id="a77yr3r3R"></path><path d="M274.97 411L351.93 411L351.93 512.08L274.97 512.08L274.97 411Z" id="a3N5OkCNOX"></path><path d="M116.46 200.8L116.46 200.8L116.46 201.95L116.46 201.95L116.46 200.8Z" id="aOX6b67MP"></path><path d="M497.34 202.37C508.38 202.37 517.34 211.33 517.34 222.37C517.34 260.3 517.34 354.07 517.34 392C517.34 403.05 508.38 412 497.34 412C419.78 412 207.12 412 129.57 412C118.52 412 109.57 403.05 109.57 392C109.57 354.07 109.57 260.3 109.57 222.37C109.57 211.33 118.52 202.37 129.57 202.37C207.12 202.37 419.78 202.37 497.34 202.37Z" id="aPLa2QWcA"></path><path d="M379.5 512.08C382.04 512.08 384.09 514.14 384.09 516.68C384.09 517.59 384.09 515.76 384.09 516.68C384.09 519.21 382.04 521.27 379.5 521.27C351.7 521.27 272.91 521.27 245.11 521.27C242.57 521.27 240.51 519.21 240.51 516.68C240.51 515.76 240.51 517.59 240.51 516.68C240.51 514.14 242.57 512.08 245.11 512.08C272.91 512.08 351.7 512.08 379.5 512.08Z" id="bwiIZW8sA"></path><path d="M125.65 252.49L307.14 252.49L307.14 267.42L125.65 267.42L125.65 252.49Z" id="abJwTh1Zl"></path><path d="M125.65 282.35L307.14 282.35L307.14 297.28L125.65 297.28L125.65 282.35Z" id="fWb9qRnbJ"></path><path d="M125.65 321.41L198.01 321.41L198.01 389.18L125.65 389.18L125.65 321.41Z" id="aJIm8z3qR"></path><path d="M216.39 321.41L307.14 321.41L307.14 389.18L216.39 389.18L216.39 321.41Z" id="cUKFxfPmn"></path><path d="M351.93 224.92L489.77 224.92L489.77 297.28L351.93 297.28L351.93 224.92Z" id="c2yBjddOEO"></path><path d="M351.93 321.41L489.77 321.41L489.77 389.18L351.93 389.18L351.93 321.41Z" id="agFkVkF4z"></path><path d="M125.65 224.92L307.14 224.92L307.14 240.43L125.65 240.43L125.65 224.92Z" id="a1MGkBeDt0"></path></defs><g><g><g><use xlink:href="#bHGJBSz90" opacity="1" fill="#ffffff" fill-opacity="1"></use></g><g><use xlink:href="#a77yr3r3R" opacity="1" fill="#000000" fill-opacity="1"></use></g><g><use xlink:href="#a3N5OkCNOX" opacity="1" fill="#000000" fill-opacity="1"></use></g><g><use xlink:href="#aOX6b67MP" opacity="1" fill="#5616aa" fill-opacity="1"></use></g><g><use xlink:href="#aPLa2QWcA" opacity="1" fill="#ffffff" fill-opacity="1"></use></g><g><use xlink:href="#bwiIZW8sA" opacity="1" fill="#6c6c6e" fill-opacity="1"></use></g><g><use xlink:href="#abJwTh1Zl" opacity="1" fill="#c2c2c2" fill-opacity="1"></use></g><g><use xlink:href="#fWb9qRnbJ" opacity="1" fill="#c2c2c2" fill-opacity="1"></use></g><g><use xlink:href="#aJIm8z3qR" opacity="1" fill="#b7b7b7" fill-opacity="1"></use></g><g><use xlink:href="#cUKFxfPmn" opacity="1" fill="#c0c0c0" fill-opacity="1"></use></g><g><use xlink:href="#c2yBjddOEO" opacity="1" fill="#bfbfbf" fill-opacity="1"></use></g><g><use xlink:href="#agFkVkF4z" opacity="1" fill="#bababa" fill-opacity="1"></use></g><g><use xlink:href="#a1MGkBeDt0" opacity="1" fill="#8d8d8d" fill-opacity="1"></use></g></g></g></svg>